<svg xmlns="http://www.w3.org/2000/svg" xmlns:xlink="http://www.w3.org/1999/xlink" baseProfile="tiny" version="1.2" viewBox="0 0 50 50"><title>Qt SVG Document</title><desc>Generated with Qt</desc><g fill="none" fill-rule="evenodd" stroke="#000" stroke-linecap="square" stroke-linejoin="bevel" stroke-width="1"><g fill="#f55" fill-opacity="1" stroke="none" font-family="Noto Sans" font-size="10" font-style="normal" font-weight="400"><path fill-rule="evenodd" d="M507.233,11.2628 C750.133,11.2628 947.046,208.177 947.046,451.082 C947.046,693.988 750.133,890.902 507.233,890.902 C264.325,890.902 67.4117,693.988 67.4117,451.082 C67.4117,208.177 264.325,11.2628 507.233,11.2628" transform="matrix(0.0548326,0,0,-0.0548323,-2.81266,49.7339)" vector-effect="none"/></g><g fill="none" stroke="#f55" stroke-linecap="butt" stroke-linejoin="miter" stroke-miterlimit="4" stroke-opacity="1" stroke-width="32.232" font-family="Noto Sans" font-size="10" font-style="normal" font-weight="400"><path fill-rule="evenodd" d="M507.233,11.2628 C750.133,11.2628 947.046,208.177 947.046,451.082 C947.046,693.988 750.133,890.902 507.233,890.902 C264.325,890.902 67.4117,693.988 67.4117,451.082 C67.4117,208.177 264.325,11.2628 507.233,11.2628" transform="matrix(0.0548326,0,0,-0.0548323,-2.81266,49.7339)" vector-effect="none"/></g></g></svg>