<svg xmlns="http://www.w3.org/2000/svg" xmlns:xlink="http://www.w3.org/1999/xlink" baseProfile="tiny" version="1.2" viewBox="0 0 50 50"><title>Qt SVG Document</title><desc>Generated with Qt</desc><g fill="none" fill-rule="evenodd" stroke="#000" stroke-linecap="square" stroke-linejoin="bevel" stroke-width="1"><g fill="#50fa7b" fill-opacity="1" stroke="none" font-family="Noto Sans" font-size="10" font-style="normal" font-weight="400"><path fill-rule="evenodd" d="M486.806,0.502897 C738.607,0.502897 942.735,204.633 942.735,456.438 C942.735,708.245 738.607,912.374 486.806,912.374 C234.998,912.374 30.8685,708.245 30.8685,456.438 C30.8685,204.633 234.998,0.502897 486.806,0.502897" transform="matrix(0.0548326,0,0,-0.0548323,-1.6926,50.0276)" vector-effect="none"/></g><g fill="#50fa7b" fill-opacity="1" stroke="none" font-family="Noto Sans" font-size="10" font-style="normal" font-weight="400"><path fill-rule="evenodd" d="M486.804,33.0692 C720.622,33.0692 910.169,222.621 910.169,456.44 C910.169,690.26 720.622,879.808 486.804,879.808 C252.982,879.808 63.4351,690.26 63.4351,456.44 C63.4351,222.621 252.982,33.0692 486.804,33.0692" transform="matrix(0.0548326,0,0,-0.0548323,-1.6926,50.0276)" vector-effect="none"/></g></g></svg>