<svg xmlns="http://www.w3.org/2000/svg" xmlns:xlink="http://www.w3.org/1999/xlink" baseProfile="tiny" version="1.2" viewBox="0 0 50 50"><title>Qt SVG Document</title><desc>Generated with Qt</desc><g fill="none" fill-rule="evenodd" stroke="#000" stroke-linecap="square" stroke-linejoin="bevel" stroke-width="1"><g fill="#5b5c63" fill-opacity="1" stroke="none" font-family="Noto Sans" font-size="10" font-style="normal" font-weight="400"><path fill-rule="evenodd" d="M-419.917,788.749 C-168.11,788.749 36.0191,992.875 36.0191,1244.68 C36.0191,1496.49 -168.11,1700.62 -419.917,1700.62 C-671.722,1700.62 -875.852,1496.49 -875.852,1244.68 C-875.852,992.875 -671.722,788.749 -419.917,788.749" transform="matrix(0.0548323,0,0,-0.0548325,48.025,93.2491)" vector-effect="none"/></g><g fill="#5b5c63" fill-opacity="1" stroke="none" font-family="Noto Sans" font-size="10" font-style="normal" font-weight="400"><path fill-rule="evenodd" d="M-419.917,827.525 C-189.527,827.525 -2.75726,1014.29 -2.75726,1244.68 C-2.75726,1475.07 -189.527,1661.84 -419.917,1661.84 C-650.305,1661.84 -837.076,1475.07 -837.076,1244.68 C-837.076,1014.29 -650.305,827.525 -419.917,827.525" transform="matrix(0.0548323,0,0,-0.0548325,48.025,93.2491)" vector-effect="none"/></g></g></svg>