<svg xmlns="http://www.w3.org/2000/svg" xmlns:xlink="http://www.w3.org/1999/xlink" baseProfile="tiny" version="1.2" viewBox="0 0 50 50"><title>Qt SVG Document</title><desc>Generated with Qt</desc><g fill="none" fill-rule="evenodd" stroke="#000" stroke-linecap="square" stroke-linejoin="bevel" stroke-width="1"><g fill="#f1fa8c" fill-opacity="1" stroke="none" font-family="Noto Sans" font-size="10" font-style="normal" font-weight="400"><path fill-rule="evenodd" d="M461.253,0.342218 C713.059,0.342218 917.189,204.472 917.189,456.28 C917.189,708.083 713.059,912.214 461.253,912.214 C209.448,912.214 5.31766,708.083 5.31766,456.28 C5.31766,204.472 209.448,0.342218 461.253,0.342218" transform="matrix(0.0548323,0,0,-0.0548323,-0.29158,50.0188)" vector-effect="none"/></g><g fill="#f1fa8c" fill-opacity="1" stroke="none" font-family="Noto Sans" font-size="10" font-style="normal" font-weight="400"><path fill-rule="evenodd" d="M461.255,32.909 C695.074,32.909 884.62,222.457 884.62,456.28 C884.62,690.099 695.074,879.647 461.255,879.647 C227.438,879.647 37.8864,690.099 37.8864,456.28 C37.8864,222.457 227.438,32.909 461.255,32.909" transform="matrix(0.0548323,0,0,-0.0548323,-0.29158,50.0188)" vector-effect="none"/></g></g></svg>