<svg xmlns="http://www.w3.org/2000/svg" xmlns:xlink="http://www.w3.org/1999/xlink" baseProfile="tiny" version="1.2" viewBox="0 0 50 50"><title>Qt SVG Document</title><desc>Generated with Qt</desc><g fill="none" fill-rule="evenodd" stroke="#000" stroke-linecap="square" stroke-linejoin="bevel" stroke-width="1"><g fill="#f1fa8c" fill-opacity="1" stroke="none" font-family="Noto Sans" font-size="10" font-style="normal" font-weight="400"><path fill-rule="evenodd" d="M461.904,2.07917 C713.705,2.07917 917.829,206.204 917.829,458.004 C917.829,709.801 713.705,913.925 461.904,913.925 C210.105,913.925 5.97917,709.801 5.97917,458.004 C5.97917,206.204 210.105,2.07917 461.904,2.07917" transform="matrix(0.0548336,0,0,-0.0548338,-0.327859,50.114)" vector-effect="none"/></g><g fill="#f1fa8c" fill-opacity="1" stroke="none" font-family="Noto Sans" font-size="10" font-style="normal" font-weight="400"><path fill-rule="evenodd" d="M461.904,40.8542 C692.288,40.8542 879.05,227.617 879.05,458.004 C879.05,688.387 692.288,875.15 461.904,875.15 C231.521,875.15 44.7541,688.387 44.7541,458.004 C44.7541,227.617 231.521,40.8542 461.904,40.8542" transform="matrix(0.0548336,0,0,-0.0548338,-0.327859,50.114)" vector-effect="none"/></g><g fill="#cd6e19" fill-opacity="1" stroke="none" font-family="Noto Sans" font-size="10" font-style="normal" font-weight="400" opacity=".9"><path fill-rule="evenodd" d="M193.118,457.997 L730.685,458.006" transform="matrix(0.0548336,0,0,-0.0548338,-0.327859,50.114)" vector-effect="none"/></g><g fill="none" stroke="#975616" stroke-linecap="round" stroke-linejoin="miter" stroke-miterlimit="4" stroke-opacity="1" stroke-width="71.846" font-family="Noto Sans" font-size="10" font-style="normal" font-weight="400" opacity=".9"><path fill-rule="evenodd" d="M193.118,457.997 L730.685,458.006" transform="matrix(0.0548336,0,0,-0.0548338,-0.327859,50.114)" vector-effect="none"/></g></g></svg>