<svg xmlns="http://www.w3.org/2000/svg" xmlns:xlink="http://www.w3.org/1999/xlink" baseProfile="tiny" version="1.2" viewBox="0 0 50 50"><title>Qt SVG Document</title><desc>Generated with Qt</desc><g fill="none" fill-rule="evenodd" stroke="#000" stroke-linecap="square" stroke-linejoin="bevel" stroke-width="1"><g fill="#f1fa8c" fill-opacity="1" stroke="none" font-family="Noto Sans" font-size="10" font-style="normal" font-weight="400"><path fill-rule="evenodd" d="M464.887,10.2875 C716.691,10.2875 920.817,214.413 920.817,466.208 C920.817,718.009 716.691,922.133 464.887,922.133 C213.088,922.133 8.9625,718.009 8.9625,466.208 C8.9625,214.413 213.088,10.2875 464.887,10.2875" transform="matrix(0.0548333,0,0,-0.0548338,-0.491443,50.5641)" vector-effect="none"/></g><g fill="#f1fa8c" fill-opacity="1" stroke="none" font-family="Noto Sans" font-size="10" font-style="normal" font-weight="400"><path fill-rule="evenodd" d="M464.887,49.0625 C695.275,49.0625 882.037,235.829 882.037,466.208 C882.037,696.596 695.275,883.358 464.887,883.358 C234.505,883.358 47.7417,696.596 47.7417,466.208 C47.7417,235.829 234.505,49.0625 464.887,49.0625" transform="matrix(0.0548333,0,0,-0.0548338,-0.491443,50.5641)" vector-effect="none"/></g><g fill="#cd6e19" fill-opacity="1" stroke="none" font-family="Noto Sans" font-size="10" font-style="normal" font-weight="400" opacity=".9"><path fill-rule="evenodd" d="M196.105,466.205 L733.674,466.215" transform="matrix(0.0548333,0,0,-0.0548338,-0.491443,50.5641)" vector-effect="none"/></g><g fill="none" stroke="#975616" stroke-linecap="round" stroke-linejoin="miter" stroke-miterlimit="4" stroke-opacity="1" stroke-width="71.846" font-family="Noto Sans" font-size="10" font-style="normal" font-weight="400" opacity=".9"><path fill-rule="evenodd" d="M196.105,466.205 L733.674,466.215" transform="matrix(0.0548333,0,0,-0.0548338,-0.491443,50.5641)" vector-effect="none"/></g></g></svg>